<svg xmlns="http://www.w3.org/2000/svg" viewBox="0 0 900 600" width="900" height="600" role="img" aria-label="AI-Driven Dynamic Pricing Platform">
  <defs>
    <linearGradient id="bg" x1="0" y1="0" x2="900" y2="600" gradientUnits="userSpaceOnUse">
      <stop offset="0" stop-color="#1b1726"/>
      <stop offset="1" stop-color="#0c0b11"/>
    </linearGradient>
    <radialGradient id="glow" cx="720" cy="72" r="540" gradientUnits="userSpaceOnUse">
      <stop offset="0" stop-color="#8B5CF6" stop-opacity="0.42"/>
      <stop offset="1" stop-color="#8B5CF6" stop-opacity="0"/>
    </radialGradient>
    <linearGradient id="accent" x1="72" y1="0" x2="828" y2="0" gradientUnits="userSpaceOnUse">
      <stop offset="0" stop-color="#8B5CF6"/>
      <stop offset="1" stop-color="#34D399"/>
    </linearGradient>
    <pattern id="grid" width="36" height="36" patternUnits="userSpaceOnUse">
      <path d="M36 0H0V36" fill="none" stroke="#ffffff" stroke-opacity="0.05"/>
    </pattern>
  </defs>
  <rect width="900" height="600" fill="url(#bg)"/>
  <rect width="900" height="600" fill="url(#grid)"/>
  <rect width="900" height="600" fill="url(#glow)"/>
  <text x="72" y="84" font-family="ui-monospace, 'SF Mono', Menlo, Consolas, monospace" font-size="15" font-weight="600" letter-spacing="4" text-anchor="start" fill="#ffffff" fill-opacity="0.55">PROPTECH · AI-DRIVEN PRICING</text>
  <rect x="72" y="112" width="150" height="56" rx="28" fill="url(#accent)"/><text x="147" y="150" font-family="Inter, 'Segoe UI', Helvetica, Arial, sans-serif" font-size="28" font-weight="800" letter-spacing="0" text-anchor="middle" fill="#ffffff" fill-opacity="1">+30%</text><text x="244" y="147" font-family="ui-monospace, 'SF Mono', Menlo, Consolas, monospace" font-size="15" font-weight="600" letter-spacing="3" text-anchor="start" fill="#ffffff" fill-opacity="0.6">1,000 PROPERTIES</text><rect x="96" y="368" width="60" height="84" rx="10" fill="#ffffff" fill-opacity="0.10"/><rect x="188" y="340" width="60" height="112" rx="10" fill="#ffffff" fill-opacity="0.10"/><rect x="280" y="350" width="60" height="102" rx="10" fill="#ffffff" fill-opacity="0.10"/><rect x="372" y="302" width="60" height="150" rx="10" fill="#ffffff" fill-opacity="0.10"/><rect x="464" y="312" width="60" height="140" rx="10" fill="#ffffff" fill-opacity="0.10"/><rect x="556" y="256" width="60" height="196" rx="10" fill="#ffffff" fill-opacity="0.10"/><rect x="648" y="238" width="60" height="214" rx="10" fill="#ffffff" fill-opacity="0.10"/><rect x="740" y="190" width="60" height="262" rx="10" fill="#ffffff" fill-opacity="0.10"/><path d="M72 452 H828" stroke="#ffffff" stroke-opacity="0.2" stroke-width="2"/><path d="M126 346 L218 318 L310 328 L402 280 L494 290 L586 234 L678 216 L770 168" fill="none" stroke="url(#accent)" stroke-width="4" stroke-linecap="round" stroke-linejoin="round"/><circle cx="126" cy="346" r="8" fill="#15121e" stroke="url(#accent)" stroke-width="4"/><circle cx="218" cy="318" r="8" fill="#15121e" stroke="url(#accent)" stroke-width="4"/><circle cx="310" cy="328" r="8" fill="#15121e" stroke="url(#accent)" stroke-width="4"/><circle cx="402" cy="280" r="8" fill="#15121e" stroke="url(#accent)" stroke-width="4"/><circle cx="494" cy="290" r="8" fill="#15121e" stroke="url(#accent)" stroke-width="4"/><circle cx="586" cy="234" r="8" fill="#15121e" stroke="url(#accent)" stroke-width="4"/><circle cx="678" cy="216" r="8" fill="#15121e" stroke="url(#accent)" stroke-width="4"/><circle cx="770" cy="168" r="8" fill="#15121e" stroke="url(#accent)" stroke-width="4"/>
  <text x="72" y="536" font-family="Inter, 'Segoe UI', Helvetica, Arial, sans-serif" font-size="38" font-weight="800" letter-spacing="-1" text-anchor="start" fill="#ffffff" fill-opacity="1">AI-Driven Dynamic Pricing Platform</text>
  <rect x="72" y="556" width="72" height="5" rx="2.5" fill="url(#accent)"/>
</svg>
